<?xml version="1.0" standalone="no"?><svg xmlns="http://www.w3.org/2000/svg" viewBox="0 0 1440 320"><path fill="#780c9c" fill-opacity="1" d="M0,224L21.8,224C43.6,224,87,224,131,192C174.5,160,218,96,262,101.3C305.5,107,349,181,393,202.7C436.4,224,480,192,524,170.7C567.3,149,611,139,655,154.7C698.2,171,742,213,785,208C829.1,203,873,149,916,144C960,139,1004,181,1047,170.7C1090.9,160,1135,96,1178,64C1221.8,32,1265,32,1309,32C1352.7,32,1396,32,1418,32L1440,32L1440,0L1418.2,0C1396.4,0,1353,0,1309,0C1265.5,0,1222,0,1178,0C1134.5,0,1091,0,1047,0C1003.6,0,960,0,916,0C872.7,0,829,0,785,0C741.8,0,698,0,655,0C610.9,0,567,0,524,0C480,0,436,0,393,0C349.1,0,305,0,262,0C218.2,0,175,0,131,0C87.3,0,44,0,22,0L0,0Z"></path></svg>