<?xml version="1.0" standalone="no"?><svg xmlns="http://www.w3.org/2000/svg" viewBox="0 0 1440 320"><path fill="#438af4" fill-opacity="1" d="M0,256L21.8,234.7C43.6,213,87,171,131,165.3C174.5,160,218,192,262,192C305.5,192,349,160,393,160C436.4,160,480,192,524,176C567.3,160,611,96,655,112C698.2,128,742,224,785,240C829.1,256,873,192,916,154.7C960,117,1004,107,1047,117.3C1090.9,128,1135,160,1178,176C1221.8,192,1265,192,1309,192C1352.7,192,1396,192,1418,192L1440,192L1440,0L1418.2,0C1396.4,0,1353,0,1309,0C1265.5,0,1222,0,1178,0C1134.5,0,1091,0,1047,0C1003.6,0,960,0,916,0C872.7,0,829,0,785,0C741.8,0,698,0,655,0C610.9,0,567,0,524,0C480,0,436,0,393,0C349.1,0,305,0,262,0C218.2,0,175,0,131,0C87.3,0,44,0,22,0L0,0Z"></path></svg>