<?xml version="1.0" standalone="no"?><svg xmlns="http://www.w3.org/2000/svg" viewBox="0 0 1440 320"><path fill="#d46f04" fill-opacity="1" d="M0,256L21.8,229.3C43.6,203,87,149,131,138.7C174.5,128,218,160,262,165.3C305.5,171,349,149,393,154.7C436.4,160,480,192,524,197.3C567.3,203,611,181,655,170.7C698.2,160,742,160,785,181.3C829.1,203,873,245,916,266.7C960,288,1004,288,1047,261.3C1090.9,235,1135,181,1178,176C1221.8,171,1265,213,1309,245.3C1352.7,277,1396,299,1418,309.3L1440,320L1440,0L1418.2,0C1396.4,0,1353,0,1309,0C1265.5,0,1222,0,1178,0C1134.5,0,1091,0,1047,0C1003.6,0,960,0,916,0C872.7,0,829,0,785,0C741.8,0,698,0,655,0C610.9,0,567,0,524,0C480,0,436,0,393,0C349.1,0,305,0,262,0C218.2,0,175,0,131,0C87.3,0,44,0,22,0L0,0Z"></path></svg>